{
    "asset" : {
        "generator" : "Khronos glTF Blender I/O v1.8.19",
        "version" : "2.0"
    },
    "scene" : 0,
    "scenes" : [
        {
            "name" : "Scene",
            "nodes" : [
                0,
                1,
                2,
                3
            ]
        }
    ],
    "nodes" : [
        {
            "mesh" : 0,
            "name" : "Eyes",
            "scale" : [
                0.05235737934708595,
                0.05235737934708595,
                0.05235737934708595
            ],
            "translation" : [
                -4.27203369140625,
                0.038102950900793076,
                -0.3601694405078888
            ]
        },
        {
            "mesh" : 1,
            "name" : "Teeth"
        },
        {
            "mesh" : 2,
            "name" : "Shark"
        },
        {
            "mesh" : 3,
            "name" : "Teeth.001",
            "scale" : [
                1,
                1,
                -1
            ]
        }
    ],
    "materials" : [
        {
            "doubleSided" : true,
            "name" : "Material.003",
            "pbrMetallicRoughness" : {
                "baseColorTexture" : {
                    "index" : 0
                },
                "metallicFactor" : 0.13409091532230377,
                "roughnessFactor" : 0.45681819319725037
            }
        },
        {
            "doubleSided" : true,
            "name" : "Material.004",
            "pbrMetallicRoughness" : {
                "baseColorTexture" : {
                    "index" : 1
                },
                "metallicFactor" : 0,
                "roughnessFactor" : 0.5
            }
        },
        {
            "doubleSided" : true,
            "name" : "Material",
            "pbrMetallicRoughness" : {
                "baseColorTexture" : {
                    "index" : 2
                },
                "metallicFactor" : 0.2278480976819992,
                "roughnessFactor" : 0.7151898741722107
            }
        },
        {
            "doubleSided" : true,
            "name" : "Material.001",
            "pbrMetallicRoughness" : {
                "baseColorTexture" : {
                    "index" : 3
                },
                "metallicFactor" : 0,
                "roughnessFactor" : 0.5
            }
        }
    ],
    "meshes" : [
        {
            "name" : "Sphere.001",
            "primitives" : [
                {
                    "attributes" : {
                        "POSITION" : 0,
                        "NORMAL" : 1
                    },
                    "indices" : 2,
                    "material" : 0
                }
            ]
        },
        {
            "name" : "Cube.002",
            "primitives" : [
                {
                    "attributes" : {
                        "POSITION" : 3,
                        "NORMAL" : 4,
                        "TEXCOORD_0" : 5
                    },
                    "indices" : 6,
                    "material" : 1
                }
            ]
        },
        {
            "name" : "Cube.001",
            "primitives" : [
                {
                    "attributes" : {
                        "POSITION" : 7,
                        "NORMAL" : 8,
                        "TEXCOORD_0" : 9
                    },
                    "indices" : 10,
                    "material" : 2
                }
            ]
        },
        {
            "name" : "Cube.003",
            "primitives" : [
                {
                    "attributes" : {
                        "POSITION" : 11,
                        "NORMAL" : 12,
                        "TEXCOORD_0" : 13
                    },
                    "indices" : 6,
                    "material" : 3
                }
            ]
        }
    ],
    "textures" : [
        {
            "sampler" : 0,
            "source" : 0
        },
        {
            "sampler" : 0,
            "source" : 1
        },
        {
            "sampler" : 0,
            "source" : 2
        },
        {
            "sampler" : 0,
            "source" : 1
        }
    ],
    "images" : [
        {
            "mimeType" : "image/png",
            "name" : "\u0421\u043d\u0438\u043c\u043e\u043a \u044d\u043a\u0440\u0430\u043d\u0430 2022-05-14 \u0432 17.39.57",
            "uri" : "%D0%A1%D0%BD%D0%B8%D0%BC%D0%BE%D0%BA%20%D1%8D%D0%BA%D1%80%D0%B0%D0%BD%D0%B0%202022-05-14%20%D0%B2%2017_39_57.png"
        },
        {
            "mimeType" : "image/png",
            "name" : "\u0421\u043d\u0438\u043c\u043e\u043a \u044d\u043a\u0440\u0430\u043d\u0430 2022-05-14 \u0432 17.45.45",
            "uri" : "%D0%A1%D0%BD%D0%B8%D0%BC%D0%BE%D0%BA%20%D1%8D%D0%BA%D1%80%D0%B0%D0%BD%D0%B0%202022-05-14%20%D0%B2%2017_45_45.png"
        },
        {
            "mimeType" : "image/png",
            "name" : "Material Diffuse Color2",
            "uri" : "Material%20Diffuse%20Color2.png"
        }
    ],
    "accessors" : [
        {
            "bufferView" : 0,
            "componentType" : 5126,
            "count" : 964,
            "max" : [
                1.2208483219146729,
                1,
                14.768744468688965
            ],
            "min" : [
                -0.9999998211860657,
                -1.106660008430481,
                -0.9999991655349731
            ],
            "type" : "VEC3"
        },
        {
            "bufferView" : 1,
            "componentType" : 5126,
            "count" : 964,
            "type" : "VEC3"
        },
        {
            "bufferView" : 2,
            "componentType" : 5123,
            "count" : 5760,
            "type" : "SCALAR"
        },
        {
            "bufferView" : 3,
            "componentType" : 5126,
            "count" : 1017,
            "max" : [
                -3.8067831993103027,
                -0.2224109023809433,
                0.393974632024765
            ],
            "min" : [
                -4.604267120361328,
                -0.41574063897132874,
                0.010038425214588642
            ],
            "type" : "VEC3"
        },
        {
            "bufferView" : 4,
            "componentType" : 5126,
            "count" : 1017,
            "type" : "VEC3"
        },
        {
            "bufferView" : 5,
            "componentType" : 5126,
            "count" : 1017,
            "type" : "VEC2"
        },
        {
            "bufferView" : 6,
            "componentType" : 5123,
            "count" : 1920,
            "type" : "SCALAR"
        },
        {
            "bufferView" : 7,
            "componentType" : 5126,
            "count" : 399072,
            "max" : [
                4.72200870513916,
                2.1185250282287598,
                1.5908467769622803
            ],
            "min" : [
                -5.022326469421387,
                -1.9393272399902344,
                -1.5908466577529907
            ],
            "type" : "VEC3"
        },
        {
            "bufferView" : 8,
            "componentType" : 5126,
            "count" : 399072,
            "type" : "VEC3"
        },
        {
            "bufferView" : 9,
            "componentType" : 5126,
            "count" : 399072,
            "type" : "VEC2"
        },
        {
            "bufferView" : 10,
            "componentType" : 5125,
            "count" : 2310144,
            "type" : "SCALAR"
        },
        {
            "bufferView" : 11,
            "componentType" : 5126,
            "count" : 1017,
            "max" : [
                -3.8067831993103027,
                -0.2224109023809433,
                0.393974632024765
            ],
            "min" : [
                -4.604267120361328,
                -0.41574063897132874,
                0.010038425214588642
            ],
            "type" : "VEC3"
        },
        {
            "bufferView" : 12,
            "componentType" : 5126,
            "count" : 1017,
            "type" : "VEC3"
        },
        {
            "bufferView" : 13,
            "componentType" : 5126,
            "count" : 1017,
            "type" : "VEC2"
        }
    ],
    "bufferViews" : [
        {
            "buffer" : 0,
            "byteLength" : 11568,
            "byteOffset" : 0
        },
        {
            "buffer" : 0,
            "byteLength" : 11568,
            "byteOffset" : 11568
        },
        {
            "buffer" : 0,
            "byteLength" : 11520,
            "byteOffset" : 23136
        },
        {
            "buffer" : 0,
            "byteLength" : 12204,
            "byteOffset" : 34656
        },
        {
            "buffer" : 0,
            "byteLength" : 12204,
            "byteOffset" : 46860
        },
        {
            "buffer" : 0,
            "byteLength" : 8136,
            "byteOffset" : 59064
        },
        {
            "buffer" : 0,
            "byteLength" : 3840,
            "byteOffset" : 67200
        },
        {
            "buffer" : 0,
            "byteLength" : 4788864,
            "byteOffset" : 71040
        },
        {
            "buffer" : 0,
            "byteLength" : 4788864,
            "byteOffset" : 4859904
        },
        {
            "buffer" : 0,
            "byteLength" : 3192576,
            "byteOffset" : 9648768
        },
        {
            "buffer" : 0,
            "byteLength" : 9240576,
            "byteOffset" : 12841344
        },
        {
            "buffer" : 0,
            "byteLength" : 12204,
            "byteOffset" : 22081920
        },
        {
            "buffer" : 0,
            "byteLength" : 12204,
            "byteOffset" : 22094124
        },
        {
            "buffer" : 0,
            "byteLength" : 8136,
            "byteOffset" : 22106328
        }
    ],
    "samplers" : [
        {
            "magFilter" : 9729,
            "minFilter" : 9987
        }
    ],
    "buffers" : [
        {
            "byteLength" : 22114464,
            "uri" : "Sharklove.bin"
        }
    ]
}
