{
    "asset" : {
        "generator" : "Khronos glTF Blender I/O v1.8.19",
        "version" : "2.0"
    },
    "scene" : 0,
    "scenes" : [
        {
            "name" : "Scene",
            "nodes" : [
                0,
                1,
                2,
                3,
                4,
                5,
                6,
                7,
                8,
                9
            ]
        }
    ],
    "nodes" : [
        {
            "mesh" : 0,
            "name" : "Sphere",
            "scale" : [
                29.566089630126953,
                32.35712432861328,
                40.08207702636719
            ],
            "translation" : [
                386.6208801269531,
                31.546070098876953,
                -142.16136169433594
            ]
        },
        {
            "mesh" : 1,
            "name" : "Cube",
            "rotation" : [
                0.016974853351712227,
                0,
                0,
                0.9998559355735779
            ],
            "scale" : [
                33.54119110107422,
                -1.965256929397583,
                35.67044448852539
            ],
            "translation" : [
                390.0089416503906,
                4.723051071166992,
                -161.54098510742188
            ]
        },
        {
            "mesh" : 2,
            "name" : "Sphere.002",
            "rotation" : [
                0.2136399745941162,
                -0.4362179934978485,
                0.6052078008651733,
                -0.6307101845741272
            ],
            "scale" : [
                6.143871307373047,
                -1.947777509689331,
                -5.645952224731445
            ],
            "translation" : [
                303.3999938964844,
                133.9189453125,
                148.5648956298828
            ]
        },
        {
            "mesh" : 3,
            "name" : "Sphere.003",
            "rotation" : [
                0.382320374250412,
                -0.6025441288948059,
                0.5155091881752014,
                -0.4743650555610657
            ],
            "scale" : [
                6.143871307373047,
                -1.947777509689331,
                5.645952224731445
            ],
            "translation" : [
                376.63604736328125,
                165.95310974121094,
                141.18231201171875
            ]
        },
        {
            "mesh" : 4,
            "name" : "Sphere.004",
            "rotation" : [
                0.4785061180591583,
                -0.6858919858932495,
                0.42772701382637024,
                -0.3429776728153229
            ],
            "scale" : [
                6.143871307373047,
                -1.947777509689331,
                -5.645952224731445
            ],
            "translation" : [
                624.6437377929688,
                135.2542266845703,
                61.42815017700195
            ]
        },
        {
            "mesh" : 5,
            "name" : "Sphere.001",
            "rotation" : [
                0.6416629552841187,
                -0.7440715432167053,
                0.013680599629878998,
                0.18557758629322052
            ],
            "scale" : [
                6.143871307373047,
                -1.947777509689331,
                5.645952224731445
            ],
            "translation" : [
                695.4439697265625,
                161.90061950683594,
                -210.79844665527344
            ]
        },
        {
            "mesh" : 6,
            "name" : "Sphere.005",
            "rotation" : [
                0.10848183184862137,
                -0.3235677182674408,
                0.6325742602348328,
                -0.6952592730522156
            ],
            "scale" : [
                6.143871307373047,
                -1.947777509689331,
                -5.645952224731445
            ],
            "translation" : [
                439.4119567871094,
                109.33558654785156,
                -81.15995788574219
            ]
        },
        {
            "mesh" : 7,
            "name" : "Sphere.006",
            "rotation" : [
                0.6046610474586487,
                -0.7646419405937195,
                0.21518270671367645,
                -0.05834685638546944
            ],
            "scale" : [
                6.143871307373047,
                -1.947777509689331,
                -5.645952224731445
            ],
            "translation" : [
                430.1982727050781,
                108.0526351928711,
                -228.81906127929688
            ]
        },
        {
            "mesh" : 8,
            "name" : "Sphere.007",
            "rotation" : [
                -0.5457583665847778,
                0.5232295989990234,
                0.3377370238304138,
                -0.5606356263160706
            ],
            "scale" : [
                6.143871307373047,
                -1.947777509689331,
                5.645952224731445
            ],
            "translation" : [
                439.5072937011719,
                162.4402313232422,
                -459.1178283691406
            ]
        },
        {
            "mesh" : 9,
            "name" : "Sphere.008",
            "rotation" : [
                0.5912451148033142,
                -0.7600044012069702,
                0.24969524145126343,
                -0.1023464947938919
            ],
            "scale" : [
                6.143871307373047,
                -1.947777509689331,
                -5.645952224731445
            ],
            "translation" : [
                459.8990173339844,
                112.17559051513672,
                -257.1590881347656
            ]
        }
    ],
    "materials" : [
        {
            "doubleSided" : true,
            "name" : "Material.043",
            "pbrMetallicRoughness" : {
                "baseColorTexture" : {
                    "index" : 0
                },
                "metallicFactor" : 0,
                "roughnessFactor" : 0.5
            }
        },
        {
            "doubleSided" : true,
            "name" : "Material.044",
            "pbrMetallicRoughness" : {
                "baseColorTexture" : {
                    "index" : 1
                },
                "metallicFactor" : 0,
                "roughnessFactor" : 0.5
            }
        }
    ],
    "meshes" : [
        {
            "name" : "Sphere",
            "primitives" : [
                {
                    "attributes" : {
                        "POSITION" : 0,
                        "NORMAL" : 1,
                        "TEXCOORD_0" : 2
                    },
                    "indices" : 3,
                    "material" : 0
                }
            ]
        },
        {
            "name" : "Cube",
            "primitives" : [
                {
                    "attributes" : {
                        "POSITION" : 4,
                        "NORMAL" : 5,
                        "TEXCOORD_0" : 6
                    },
                    "indices" : 7,
                    "material" : 1
                }
            ]
        },
        {
            "name" : "Sphere.816",
            "primitives" : [
                {
                    "attributes" : {
                        "POSITION" : 8,
                        "NORMAL" : 9,
                        "TEXCOORD_0" : 10
                    },
                    "indices" : 11,
                    "material" : 0
                }
            ]
        },
        {
            "name" : "Sphere.818",
            "primitives" : [
                {
                    "attributes" : {
                        "POSITION" : 12,
                        "NORMAL" : 13,
                        "TEXCOORD_0" : 14
                    },
                    "indices" : 11,
                    "material" : 0
                }
            ]
        },
        {
            "name" : "Sphere.819",
            "primitives" : [
                {
                    "attributes" : {
                        "POSITION" : 15,
                        "NORMAL" : 16,
                        "TEXCOORD_0" : 17
                    },
                    "indices" : 11,
                    "material" : 0
                }
            ]
        },
        {
            "name" : "Sphere.820",
            "primitives" : [
                {
                    "attributes" : {
                        "POSITION" : 18,
                        "NORMAL" : 19,
                        "TEXCOORD_0" : 20
                    },
                    "indices" : 11,
                    "material" : 0
                }
            ]
        },
        {
            "name" : "Sphere.821",
            "primitives" : [
                {
                    "attributes" : {
                        "POSITION" : 21,
                        "NORMAL" : 22,
                        "TEXCOORD_0" : 23
                    },
                    "indices" : 11,
                    "material" : 0
                }
            ]
        },
        {
            "name" : "Sphere.822",
            "primitives" : [
                {
                    "attributes" : {
                        "POSITION" : 24,
                        "NORMAL" : 25,
                        "TEXCOORD_0" : 26
                    },
                    "indices" : 11,
                    "material" : 0
                }
            ]
        },
        {
            "name" : "Sphere.823",
            "primitives" : [
                {
                    "attributes" : {
                        "POSITION" : 27,
                        "NORMAL" : 28,
                        "TEXCOORD_0" : 29
                    },
                    "indices" : 11,
                    "material" : 0
                }
            ]
        },
        {
            "name" : "Sphere.824",
            "primitives" : [
                {
                    "attributes" : {
                        "POSITION" : 30,
                        "NORMAL" : 31,
                        "TEXCOORD_0" : 32
                    },
                    "indices" : 11,
                    "material" : 0
                }
            ]
        }
    ],
    "textures" : [
        {
            "sampler" : 0,
            "source" : 0
        },
        {
            "sampler" : 0,
            "source" : 0
        }
    ],
    "images" : [
        {
            "mimeType" : "image/jpeg",
            "name" : "Incrusted_Gems_001_COLOR",
            "uri" : "Incrusted_Gems_001_COLOR.jpg"
        }
    ],
    "accessors" : [
        {
            "bufferView" : 0,
            "componentType" : 5126,
            "count" : 559,
            "max" : [
                1.0252714157104492,
                0.9934666752815247,
                1.5129772424697876
            ],
            "min" : [
                -1.0121897459030151,
                -1.5240190029144287,
                -1.0307111740112305
            ],
            "type" : "VEC3"
        },
        {
            "bufferView" : 1,
            "componentType" : 5126,
            "count" : 559,
            "type" : "VEC3"
        },
        {
            "bufferView" : 2,
            "componentType" : 5126,
            "count" : 559,
            "type" : "VEC2"
        },
        {
            "bufferView" : 3,
            "componentType" : 5123,
            "count" : 2880,
            "type" : "SCALAR"
        },
        {
            "bufferView" : 4,
            "componentType" : 5126,
            "count" : 72,
            "max" : [
                1.88250732421875,
                14.057594299316406,
                1.892220139503479
            ],
            "min" : [
                -1.9814512729644775,
                -9.033330917358398,
                -1.8090736865997314
            ],
            "type" : "VEC3"
        },
        {
            "bufferView" : 5,
            "componentType" : 5126,
            "count" : 72,
            "type" : "VEC3"
        },
        {
            "bufferView" : 6,
            "componentType" : 5126,
            "count" : 72,
            "type" : "VEC2"
        },
        {
            "bufferView" : 7,
            "componentType" : 5123,
            "count" : 210,
            "type" : "SCALAR"
        },
        {
            "bufferView" : 8,
            "componentType" : 5126,
            "count" : 335641,
            "max" : [
                38.19639205932617,
                -20.617034912109375,
                14.998705863952637
            ],
            "min" : [
                14.74119758605957,
                -115.60063171386719,
                3.915803909301758
            ],
            "type" : "VEC3"
        },
        {
            "bufferView" : 9,
            "componentType" : 5126,
            "count" : 335641,
            "type" : "VEC3"
        },
        {
            "bufferView" : 10,
            "componentType" : 5126,
            "count" : 335641,
            "type" : "VEC2"
        },
        {
            "bufferView" : 11,
            "componentType" : 5125,
            "count" : 487209,
            "type" : "SCALAR"
        },
        {
            "bufferView" : 12,
            "componentType" : 5126,
            "count" : 335641,
            "max" : [
                38.19639205932617,
                -20.617034912109375,
                14.998705863952637
            ],
            "min" : [
                14.74119758605957,
                -115.60063171386719,
                3.915803909301758
            ],
            "type" : "VEC3"
        },
        {
            "bufferView" : 13,
            "componentType" : 5126,
            "count" : 335641,
            "type" : "VEC3"
        },
        {
            "bufferView" : 14,
            "componentType" : 5126,
            "count" : 335641,
            "type" : "VEC2"
        },
        {
            "bufferView" : 15,
            "componentType" : 5126,
            "count" : 335641,
            "max" : [
                38.19639205932617,
                -20.617034912109375,
                14.998705863952637
            ],
            "min" : [
                14.74119758605957,
                -115.60063171386719,
                3.915803909301758
            ],
            "type" : "VEC3"
        },
        {
            "bufferView" : 16,
            "componentType" : 5126,
            "count" : 335641,
            "type" : "VEC3"
        },
        {
            "bufferView" : 17,
            "componentType" : 5126,
            "count" : 335641,
            "type" : "VEC2"
        },
        {
            "bufferView" : 18,
            "componentType" : 5126,
            "count" : 335641,
            "max" : [
                38.19639205932617,
                -20.617034912109375,
                14.998705863952637
            ],
            "min" : [
                14.74119758605957,
                -115.60063171386719,
                3.915803909301758
            ],
            "type" : "VEC3"
        },
        {
            "bufferView" : 19,
            "componentType" : 5126,
            "count" : 335641,
            "type" : "VEC3"
        },
        {
            "bufferView" : 20,
            "componentType" : 5126,
            "count" : 335641,
            "type" : "VEC2"
        },
        {
            "bufferView" : 21,
            "componentType" : 5126,
            "count" : 335641,
            "max" : [
                38.19639205932617,
                -20.617034912109375,
                14.998705863952637
            ],
            "min" : [
                14.74119758605957,
                -115.60063171386719,
                3.915803909301758
            ],
            "type" : "VEC3"
        },
        {
            "bufferView" : 22,
            "componentType" : 5126,
            "count" : 335641,
            "type" : "VEC3"
        },
        {
            "bufferView" : 23,
            "componentType" : 5126,
            "count" : 335641,
            "type" : "VEC2"
        },
        {
            "bufferView" : 24,
            "componentType" : 5126,
            "count" : 335641,
            "max" : [
                38.19639205932617,
                -20.617034912109375,
                14.998705863952637
            ],
            "min" : [
                14.74119758605957,
                -115.60063171386719,
                3.915803909301758
            ],
            "type" : "VEC3"
        },
        {
            "bufferView" : 25,
            "componentType" : 5126,
            "count" : 335641,
            "type" : "VEC3"
        },
        {
            "bufferView" : 26,
            "componentType" : 5126,
            "count" : 335641,
            "type" : "VEC2"
        },
        {
            "bufferView" : 27,
            "componentType" : 5126,
            "count" : 335641,
            "max" : [
                38.19639205932617,
                -20.617034912109375,
                14.998705863952637
            ],
            "min" : [
                14.74119758605957,
                -115.60063171386719,
                3.915803909301758
            ],
            "type" : "VEC3"
        },
        {
            "bufferView" : 28,
            "componentType" : 5126,
            "count" : 335641,
            "type" : "VEC3"
        },
        {
            "bufferView" : 29,
            "componentType" : 5126,
            "count" : 335641,
            "type" : "VEC2"
        },
        {
            "bufferView" : 30,
            "componentType" : 5126,
            "count" : 335641,
            "max" : [
                38.19639205932617,
                -20.617034912109375,
                14.998705863952637
            ],
            "min" : [
                14.74119758605957,
                -115.60063171386719,
                3.915803909301758
            ],
            "type" : "VEC3"
        },
        {
            "bufferView" : 31,
            "componentType" : 5126,
            "count" : 335641,
            "type" : "VEC3"
        },
        {
            "bufferView" : 32,
            "componentType" : 5126,
            "count" : 335641,
            "type" : "VEC2"
        }
    ],
    "bufferViews" : [
        {
            "buffer" : 0,
            "byteLength" : 6708,
            "byteOffset" : 0
        },
        {
            "buffer" : 0,
            "byteLength" : 6708,
            "byteOffset" : 6708
        },
        {
            "buffer" : 0,
            "byteLength" : 4472,
            "byteOffset" : 13416
        },
        {
            "buffer" : 0,
            "byteLength" : 5760,
            "byteOffset" : 17888
        },
        {
            "buffer" : 0,
            "byteLength" : 864,
            "byteOffset" : 23648
        },
        {
            "buffer" : 0,
            "byteLength" : 864,
            "byteOffset" : 24512
        },
        {
            "buffer" : 0,
            "byteLength" : 576,
            "byteOffset" : 25376
        },
        {
            "buffer" : 0,
            "byteLength" : 420,
            "byteOffset" : 25952
        },
        {
            "buffer" : 0,
            "byteLength" : 4027692,
            "byteOffset" : 26372
        },
        {
            "buffer" : 0,
            "byteLength" : 4027692,
            "byteOffset" : 4054064
        },
        {
            "buffer" : 0,
            "byteLength" : 2685128,
            "byteOffset" : 8081756
        },
        {
            "buffer" : 0,
            "byteLength" : 1948836,
            "byteOffset" : 10766884
        },
        {
            "buffer" : 0,
            "byteLength" : 4027692,
            "byteOffset" : 12715720
        },
        {
            "buffer" : 0,
            "byteLength" : 4027692,
            "byteOffset" : 16743412
        },
        {
            "buffer" : 0,
            "byteLength" : 2685128,
            "byteOffset" : 20771104
        },
        {
            "buffer" : 0,
            "byteLength" : 4027692,
            "byteOffset" : 23456232
        },
        {
            "buffer" : 0,
            "byteLength" : 4027692,
            "byteOffset" : 27483924
        },
        {
            "buffer" : 0,
            "byteLength" : 2685128,
            "byteOffset" : 31511616
        },
        {
            "buffer" : 0,
            "byteLength" : 4027692,
            "byteOffset" : 34196744
        },
        {
            "buffer" : 0,
            "byteLength" : 4027692,
            "byteOffset" : 38224436
        },
        {
            "buffer" : 0,
            "byteLength" : 2685128,
            "byteOffset" : 42252128
        },
        {
            "buffer" : 0,
            "byteLength" : 4027692,
            "byteOffset" : 44937256
        },
        {
            "buffer" : 0,
            "byteLength" : 4027692,
            "byteOffset" : 48964948
        },
        {
            "buffer" : 0,
            "byteLength" : 2685128,
            "byteOffset" : 52992640
        },
        {
            "buffer" : 0,
            "byteLength" : 4027692,
            "byteOffset" : 55677768
        },
        {
            "buffer" : 0,
            "byteLength" : 4027692,
            "byteOffset" : 59705460
        },
        {
            "buffer" : 0,
            "byteLength" : 2685128,
            "byteOffset" : 63733152
        },
        {
            "buffer" : 0,
            "byteLength" : 4027692,
            "byteOffset" : 66418280
        },
        {
            "buffer" : 0,
            "byteLength" : 4027692,
            "byteOffset" : 70445972
        },
        {
            "buffer" : 0,
            "byteLength" : 2685128,
            "byteOffset" : 74473664
        },
        {
            "buffer" : 0,
            "byteLength" : 4027692,
            "byteOffset" : 77158792
        },
        {
            "buffer" : 0,
            "byteLength" : 4027692,
            "byteOffset" : 81186484
        },
        {
            "buffer" : 0,
            "byteLength" : 2685128,
            "byteOffset" : 85214176
        }
    ],
    "samplers" : [
        {
            "magFilter" : 9729,
            "minFilter" : 9987
        }
    ],
    "buffers" : [
        {
            "byteLength" : 87899304,
            "uri" : "octopusModernAmazing.bin"
        }
    ]
}
